<svg id="transform" xmlns="http://www.w3.org/2000/svg" xmlns:xlink="http://www.w3.org/1999/xlink" viewBox="0 0 500 500" shape-rendering="geometricPrecision" text-rendering="geometricPrecision"><path id="transform-s-path1" d="M228,126h21.508v48.148v53.558l-54.005-32.378l44.014,94.66l9.998-11.212.012,82.211L149.496,143.018L228,126Z" fill="none" stroke="#fabd21" stroke-width="3" stroke-linejoin="round"/><path id="transform-u-copy-of-path" d="M228,126h21.508v48.148v53.558c0,0-42.508-7.706-42.508-7.706s32.517,69.988,32.517,69.988l9.998-11.212.012,82.211L149.496,143.018L228,126Z" fill="#717171" stroke="#fabd21" stroke-width="3" stroke-linejoin="round"/><path id="transform-s-path2" d="M349.943,143.921L258.164,126h-10.19l-.019,102.275c0,0,42.399-8.275,42.399-8.275s-32.19,70.288-32.19,70.288l-10.202-11.161.012,81.859L349.943,143.921Z" fill="#717171" stroke="#fabd21" stroke-width="3" stroke-linejoin="round"/><path id="transform-s-path3" d="M191,260l-47-22l26,59l31,32-10-69Z" fill="#717171" stroke="#fabd21" stroke-width="3" stroke-linejoin="round"/><path id="transform-s-path4" d="M304.05,266.422L349,241l-21.451,59.261L296.052,334l7.998-67.578Z" fill="#717171" stroke="#fabd21" stroke-width="3" stroke-linejoin="round"/><path id="transform-s-path5" d="M243,361l-45-96l9,71l36,25Z" fill="#fabd21" stroke="#fabd21" stroke-width="3" stroke-linejoin="round"/><path id="transform-s-path6" d="M193,251L128,106.028L133,226l60,25Z" fill="#717171" stroke="#fabd21" stroke-width="3" stroke-linejoin="round"/><path id="transform-s-path7" d="M301.662,258.355L372,107l-9.885,118.555-60.453,32.8Z" fill="#717171" stroke="#fabd21" stroke-width="3" stroke-linejoin="round"/><path id="transform-s-path8" d="M255,360.644l41.77-88.06-6.416,64.854L255,360.644Z" fill="#fabd21" stroke="#fabd21" stroke-width="3" stroke-linejoin="round"/><ellipse id="transform-s-ellipse1" rx="5" ry="5" transform="translate(265 246)" fill="#fabd21" fill-opacity="0.8" stroke-width="0"/><ellipse id="transform-s-ellipse2" rx="5" ry="5" transform="translate(235 246)" fill="#fabd21" fill-opacity="0.7" stroke-width="0"/><ellipse id="transform-s-ellipse3" rx="60" ry="30" transform="translate(250 410)" fill="rgba(189,189,189,0.79)" stroke-width="0"/></svg>